<?xml version="1.0" encoding="UTF-8"?>
<svg xmlns="http://www.w3.org/2000/svg" xmlns:xlink="http://www.w3.org/1999/xlink" width="1000" height="1000" viewBox="0 0 1000 1000">
<path fill-rule="nonzero" fill="rgb(22%, 59.6%, 14.9%)" fill-opacity="1" d="M 500 1000 L 30 1000 C 13.429688 1000 0 986.570312 0 970 L 0 576 L 1000 576 L 1000 970 C 1000 986.570312 986.570312 1000 970 1000 Z M 500 1000 "/>
<path fill-rule="nonzero" fill="rgb(25.1%, 38.8%, 84.7%)" fill-opacity="1" d="M 298 576 L 0 576 L 0 30 C 0 13.429688 13.429688 0 30 0 L 596 0 L 596 576 Z M 298 576 "/>
<path fill-rule="nonzero" fill="rgb(79.6%, 23.5%, 20%)" fill-opacity="1" d="M 798 344 L 596 344 L 596 0 L 970 0 C 986.570312 0 1000 13.429688 1000 30 L 1000 344 Z M 798 344 "/>
<path fill-rule="nonzero" fill="rgb(58.4%, 34.5%, 69.8%)" fill-opacity="1" d="M 798 576 L 596 576 L 596 344 L 1000 344 L 1000 576 Z M 798 576 "/>
<path fill-rule="nonzero" fill="rgb(0%, 0%, 0%)" fill-opacity="1" stroke-width="2" stroke-linecap="butt" stroke-linejoin="miter" stroke="rgb(81.176471%, 81.176471%, 81.176471%)" stroke-opacity="1" stroke-miterlimit="10" d="M 430.0625 526.09375 C 402.261719 543.183594 368.082031 551.726562 327.523438 551.726562 C 260.757812 551.726562 206.070312 528.601562 163.460938 482.34375 C 119.027344 435.859375 96.8125 372.285156 96.8125 291.621094 C 96.8125 210.046875 119.253906 144.648438 164.144531 95.429688 C 209.035156 46.210938 268.390625 21.601562 342.21875 21.601562 C 406.25 21.601562 457.691406 37.835938 496.542969 70.308594 C 535.394531 102.777344 557.667969 143.28125 563.363281 191.816406 L 459.796875 191.816406 C 451.824219 157.410156 432.339844 133.367188 401.351562 119.695312 C 384.035156 112.175781 364.78125 108.417969 343.585938 108.417969 C 303.027344 108.417969 269.703125 123.742188 243.613281 154.390625 C 217.523438 185.039062 204.476562 231.125 204.476562 292.648438 C 204.476562 354.625 218.605469 398.488281 246.859375 424.238281 C 275.113281 449.988281 307.242188 462.859375 343.246094 462.859375 C 378.566406 462.859375 407.503906 452.664062 430.0625 432.269531 C 452.621094 411.875 466.519531 385.160156 471.761719 352.117188 L 355.210938 352.117188 L 355.210938 268.039062 L 565.070312 268.039062 L 565.070312 538.398438 L 495.34375 538.398438 L 484.75 475.507812 C 464.46875 499.433594 446.242188 516.296875 430.0625 526.09375 Z M 612.242188 538.398438 "/>
<path fill-rule="nonzero" fill="rgb(0%, 0%, 0%)" fill-opacity="1" stroke-width="2" stroke-linecap="butt" stroke-linejoin="miter" stroke="rgb(81.176471%, 81.176471%, 81.176471%)" stroke-opacity="1" stroke-miterlimit="10" d="M 612.867188 136.789062 L 698.660156 136.789062 L 698.660156 168.578125 L 612.867188 168.578125 Z M 875.027344 328.539062 L 819.996094 328.539062 L 819.996094 129.269531 L 744.457031 129.269531 L 744.457031 92.695312 C 773.167969 90.191406 792.082031 86.546875 801.199219 81.757812 C 815.324219 74.46875 825.007812 59.316406 830.25 36.300781 L 875.027344 36.300781 Z M 947.828125 523.703125 "/>
<path fill-rule="nonzero" fill="rgb(0%, 0%, 0%)" fill-opacity="1" stroke-width="2" stroke-linecap="butt" stroke-linejoin="miter" stroke="rgb(81.176471%, 81.176471%, 81.176471%)" stroke-opacity="1" stroke-miterlimit="10" d="M 120.972656 603.289062 L 169.558594 603.289062 L 169.558594 919.203125 L 351.199219 919.203125 L 351.199219 961.929688 L 120.972656 961.929688 Z M 426.878906 892.351562 C 426.878906 905.046875 431.515625 915.054688 440.796875 922.378906 C 450.074219 929.703125 461.058594 933.367188 473.753906 933.367188 C 489.214844 933.367188 504.191406 929.785156 518.675781 922.625 C 543.089844 910.742188 555.296875 891.292969 555.296875 864.273438 L 555.296875 828.875 C 549.925781 832.292969 543.007812 835.140625 534.546875 837.417969 C 526.082031 839.695312 517.78125 841.324219 509.640625 842.300781 L 483.03125 845.71875 C 467.082031 847.835938 455.117188 851.171875 447.140625 855.726562 C 433.632812 863.378906 426.878906 875.585938 426.878906 892.351562 Z M 533.324219 803.484375 C 543.414062 802.179688 550.171875 797.949219 553.585938 790.789062 C 555.539062 786.882812 556.515625 781.265625 556.515625 773.941406 C 556.515625 758.96875 551.1875 748.101562 540.527344 741.347656 C 529.867188 734.59375 514.605469 731.21875 494.75 731.21875 C 471.800781 731.21875 455.523438 737.402344 445.921875 749.773438 C 440.550781 756.609375 437.050781 766.78125 435.421875 780.289062 L 394.40625 780.289062 C 395.222656 748.0625 405.679688 725.640625 425.78125 713.027344 C 445.882812 700.414062 469.195312 694.109375 495.726562 694.109375 C 526.488281 694.109375 551.472656 699.96875 570.679688 711.6875 C 589.722656 723.40625 599.242188 741.632812 599.242188 766.375 L 599.242188 917.007812 C 599.242188 921.566406 600.179688 925.226562 602.050781 927.992188 C 603.921875 930.761719 607.867188 932.144531 613.890625 932.144531 C 615.84375 932.144531 618.039062 932.023438 620.484375 931.777344 C 622.925781 931.535156 625.527344 931.167969 628.296875 930.679688 L 628.296875 963.148438 C 621.460938 965.101562 616.25 966.324219 612.671875 966.8125 C 609.089844 967.300781 604.207031 967.546875 598.023438 967.546875 C 582.886719 967.546875 571.898438 962.171875 565.0625 951.429688 C 561.480469 945.734375 558.960938 937.679688 557.492188 927.261719 C 548.542969 938.980469 535.683594 949.152344 518.921875 957.78125 C 502.15625 966.40625 483.683594 970.71875 463.5 970.71875 C 439.25 970.71875 419.433594 963.355469 404.050781 948.625 C 388.671875 933.894531 380.980469 915.460938 380.980469 893.328125 C 380.980469 869.074219 388.546875 850.277344 403.6875 836.929688 C 418.824219 823.582031 438.679688 815.363281 463.257812 812.273438 Z M 667.847656 602.066406 L 710.570312 602.066406 L 710.570312 732.195312 C 720.175781 719.660156 731.648438 710.097656 744.996094 703.507812 C 758.34375 696.914062 772.828125 693.617188 788.453125 693.617188 C 821.003906 693.617188 847.414062 704.808594 867.675781 727.1875 C 887.941406 749.566406 898.070312 782.566406 898.070312 826.1875 C 898.070312 867.527344 888.0625 901.871094 868.042969 929.214844 C 848.023438 956.558594 820.273438 970.230469 784.789062 970.230469 C 764.933594 970.230469 748.171875 965.429688 734.5 955.828125 C 726.359375 950.128906 717.652344 941.015625 708.375 928.484375 L 708.375 961.929688 L 667.847656 961.929688 Z M 782.105469 931.414062 C 805.867188 931.414062 823.648438 921.972656 835.449219 903.09375 C 847.25 884.210938 853.148438 859.308594 853.148438 828.382812 C 853.148438 800.878906 847.25 778.09375 835.449219 760.023438 C 823.648438 741.957031 806.273438 732.925781 783.328125 732.925781 C 763.308594 732.925781 745.769531 740.332031 730.714844 755.140625 C 715.660156 769.953125 708.132812 794.367188 708.132812 828.382812 C 708.132812 852.960938 711.222656 872.898438 717.40625 888.199219 C 728.964844 917.007812 750.53125 931.414062 782.105469 931.414062 Z M 917.113281 961.929688 "/>
</svg>
