<?xml version="1.0" encoding="UTF-8" standalone="no"?>
<!-- Created with Inkscape (http://www.inkscape.org/) -->

<svg
   width="90.658516mm"
   height="13.35552mm"
   viewBox="0 0 90.658516 13.35552"
   version="1.1"
   id="svg1"
   inkscape:version="1.4-beta3 (01c8a1ca, 2024-08-28)"
   sodipodi:docname="logo_banner_ginvlab.svg"
   xml:space="preserve"
   inkscape:export-filename="logo_ginvlab.png"
   inkscape:export-xdpi="96"
   inkscape:export-ydpi="96"
   xmlns:inkscape="http://www.inkscape.org/namespaces/inkscape"
   xmlns:sodipodi="http://sodipodi.sourceforge.net/DTD/sodipodi-0.dtd"
   xmlns="http://www.w3.org/2000/svg"
   xmlns:svg="http://www.w3.org/2000/svg"><sodipodi:namedview
     id="namedview1"
     pagecolor="#ffffff"
     bordercolor="#000000"
     borderopacity="0.25"
     inkscape:showpageshadow="2"
     inkscape:pageopacity="0.0"
     inkscape:pagecheckerboard="0"
     inkscape:deskcolor="#d1d1d1"
     inkscape:document-units="mm"
     inkscape:zoom="0.87523223"
     inkscape:cx="134.82136"
     inkscape:cy="-18.280862"
     inkscape:window-width="1728"
     inkscape:window-height="1051"
     inkscape:window-x="0"
     inkscape:window-y="38"
     inkscape:window-maximized="0"
     inkscape:current-layer="layer1"
     showguides="true"><sodipodi:guide
       position="90.658517,329.77334"
       orientation="1,0"
       id="guide1"
       inkscape:locked="false" /><sodipodi:guide
       position="2.2034779,283.64448"
       orientation="0,-1"
       id="guide2"
       inkscape:locked="false" /><sodipodi:guide
       position="63.737477,297"
       orientation="0,-1"
       id="guide3"
       inkscape:locked="false" /></sodipodi:namedview><defs
     id="defs1" /><g
     inkscape:label="Layer 1"
     inkscape:groupmode="layer"
     id="layer1"
     transform="translate(-52.338703,-155.74557)"><g
       id="g3"
       inkscape:export-filename="ginvlab_header.png"
       inkscape:export-xdpi="252.15501"
       inkscape:export-ydpi="252.15501"><path
         fill-rule="nonzero"
         fill="#389826"
         fill-opacity="1"
         d="M 97.667957,169.0991 H 52.941792 c -0.318593,0 -0.603089,-0.17933 -0.603089,-0.40061 v -5.26129 h 90.658507 v 5.26129 c 0,0.20898 -0.0861,0.40261 -0.3042,0.4026 z"
         id="path1"
         style="stroke-width:0.0347938"
         sodipodi:nodetypes="cssccssc" /><path
         fill-rule="nonzero"
         fill="#4063d8"
         fill-opacity="1"
         d="m 56.318055,163.4372 h -3.979352 v -7.29102 c 0,-0.22128 0.179334,-0.40061 0.400606,-0.40061 h 7.558098 v 7.69163 z m 0,0"
         id="path2"
         style="stroke-width:0.0133535" /><path
         fill-rule="nonzero"
         fill="#cb3c33"
         fill-opacity="1"
         d="M 101.64731,160.33918 H 60.297407 v -4.59361 h 82.379573 c 0.21414,0 0.32024,0.17933 0.32024,0.40061 v 4.193 z"
         id="path3"
         style="stroke-width:0.0522828"
         sodipodi:nodetypes="cccsscc" /><path
         fill-rule="nonzero"
         fill="#9558b2"
         fill-opacity="1"
         d="M 101.64731,163.4372 H 60.297407 v -3.09802 h 82.699803 v 3.09802 z m 0,0"
         id="path4"
         style="stroke-width:0.0522828" /><path
         fill-rule="nonzero"
         fill="#000000"
         fill-opacity="1"
         stroke-width="0.0267071"
         stroke-linecap="butt"
         stroke-linejoin="miter"
         stroke="#cfcfcf"
         stroke-opacity="1"
         stroke-miterlimit="10"
         d="m 58.081555,162.77078 c -0.371238,0.22821 -0.827658,0.34229 -1.369258,0.34229 -0.891557,0 -1.621828,-0.3088 -2.190813,-0.92651 -0.593346,-0.62073 -0.889992,-1.46967 -0.889992,-2.54682 0,-1.0893 0.299672,-1.9626 0.89912,-2.61985 0.599448,-0.65724 1.392053,-0.98586 2.377919,-0.98586 0.855044,0 1.541968,0.21678 2.060773,0.65041 0.518806,0.43357 0.816235,0.97444 0.892287,1.62256 h -1.382977 c -0.106463,-0.45945 -0.366648,-0.78051 -0.780451,-0.96308 -0.231235,-0.10041 -0.488343,-0.15059 -0.771375,-0.15059 -0.5416,0 -0.986596,0.20464 -1.334988,0.6139 -0.348391,0.40926 -0.522613,1.02467 -0.522613,1.84623 0,0.82761 0.188671,1.41334 0.56596,1.75719 0.377289,0.34385 0.806324,0.51573 1.287103,0.51573 0.471651,0 0.858069,-0.13615 1.159305,-0.40849 0.301237,-0.27233 0.486831,-0.62907 0.556832,-1.07031 h -1.556364 v -1.12274 h 2.802363 v 3.61025 h -0.931095 l -0.141464,-0.83981 c -0.270827,0.31949 -0.514216,0.54468 -0.730272,0.6755 z m 2.432742,0.16431"
         id="path5" /><path
         fill-rule="nonzero"
         fill="#000000"
         fill-opacity="1"
         stroke-width="0.0267071"
         stroke-linecap="butt"
         stroke-linejoin="miter"
         stroke="#cfcfcf"
         stroke-opacity="1"
         stroke-miterlimit="10"
         d="m 60.522643,157.57219 h 1.145639 v 0.42449 h -1.145639 z m 3.500764,2.56054 h -0.734862 v -2.66096 h -1.008713 v -0.48839 c 0.383393,-0.0334 0.635962,-0.0821 0.757709,-0.14605 0.188618,-0.0973 0.317929,-0.29968 0.38793,-0.60702 h 0.597936 z m 0.972147,2.60613"
         id="path6" /><path
         fill-rule="nonzero"
         fill="#000000"
         fill-opacity="1"
         stroke-width="0.0267071"
         stroke-linecap="butt"
         stroke-linejoin="miter"
         stroke="#cfcfcf"
         stroke-opacity="1"
         stroke-miterlimit="10"
         d="m 53.954115,163.80161 h 0.648794 v 4.21857 h 2.425543 v 0.57055 h -3.074337 z m 4.084928,3.86 c 0,0.16953 0.06192,0.30317 0.185854,0.40097 0.123886,0.0978 0.270566,0.14674 0.440093,0.14674 0.206458,0 0.406448,-0.0478 0.599866,-0.14345 0.326013,-0.15868 0.48902,-0.41839 0.48902,-0.7792 v -0.47269 c -0.07172,0.0456 -0.164102,0.0837 -0.277085,0.11408 -0.113036,0.0304 -0.223881,0.0522 -0.332587,0.0652 l -0.355329,0.0456 c -0.212978,0.0283 -0.372751,0.0728 -0.479266,0.13364 -0.180377,0.10219 -0.270566,0.26519 -0.270566,0.48907 z m 1.421421,-1.18669 c 0.134735,-0.0174 0.224976,-0.0739 0.270565,-0.16952 0.02608,-0.0522 0.03912,-0.12718 0.03912,-0.22498 0,-0.19994 -0.07115,-0.34505 -0.2135,-0.43524 -0.142351,-0.0902 -0.346148,-0.13526 -0.611289,-0.13526 -0.306453,0 -0.523813,0.0826 -0.652028,0.24777 -0.07172,0.0913 -0.11846,0.22712 -0.140212,0.40749 h -0.547703 c 0.0109,-0.43033 0.15054,-0.72975 0.418967,-0.89818 0.268426,-0.16843 0.579731,-0.25262 0.934016,-0.25262 0.410778,0 0.744408,0.0782 1.000889,0.23473 0.254291,0.15649 0.381411,0.39988 0.381411,0.73027 v 2.01148 c 0,0.0609 0.01252,0.10975 0.0375,0.14668 0.02499,0.037 0.07767,0.0555 0.158104,0.0555 0.02608,0 0.0554,-0.002 0.08805,-0.005 0.0326,-0.003 0.06734,-0.008 0.104324,-0.0147 v 0.43357 c -0.09128,0.0261 -0.160868,0.0424 -0.208649,0.0489 -0.04783,0.007 -0.113035,0.01 -0.195608,0.01 -0.202129,0 -0.348861,-0.0718 -0.440145,-0.21523 -0.04783,-0.0761 -0.08148,-0.18361 -0.10109,-0.32272 -0.119504,0.15648 -0.291222,0.29231 -0.51505,0.40754 -0.22388,0.11517 -0.470556,0.17276 -0.740078,0.17276 -0.323823,0 -0.588442,-0.0983 -0.793857,-0.29503 -0.205363,-0.1967 -0.30807,-0.44285 -0.30807,-0.73841 0,-0.32387 0.101038,-0.57488 0.303219,-0.75311 0.202129,-0.17824 0.467269,-0.28799 0.795474,-0.32925 z m 1.796363,-2.68964 h 0.570498 v 1.73768 c 0.128267,-0.16739 0.281467,-0.29508 0.459706,-0.38308 0.178238,-0.0881 0.371655,-0.13207 0.580304,-0.13207 0.434668,0 0.787337,0.14944 1.057903,0.44828 0.270617,0.29884 0.405874,0.7395 0.405874,1.322 0,0.55203 -0.13364,1.01064 -0.400971,1.37578 -0.267332,0.36513 -0.637892,0.5477 -1.111734,0.5477 -0.26514,0 -0.488968,-0.0641 -0.671536,-0.19232 -0.108706,-0.0761 -0.224976,-0.1978 -0.348861,-0.36514 v 0.44662 h -0.541183 z m 1.525745,4.39796 c 0.317303,0 0.554745,-0.12608 0.712327,-0.37818 0.157582,-0.25215 0.236347,-0.58469 0.236347,-0.99766 0,-0.36727 -0.07876,-0.67153 -0.236347,-0.91283 -0.157582,-0.24125 -0.389599,-0.36185 -0.696,-0.36185 -0.267332,0 -0.50154,0.0989 -0.702573,0.29664 -0.201034,0.1978 -0.30155,0.52382 -0.30155,0.97804 0,0.32821 0.04126,0.59445 0.123833,0.79876 0.154348,0.3847 0.442336,0.57708 0.863963,0.57708 z m 1.802831,0.40749"
         id="path7" /></g></g></svg>
